<?xml version="1.0" standalone="no"?>
<!DOCTYPE svg PUBLIC "-//W3C//DTD SVG 20010904//EN"
 "http://www.w3.org/TR/2001/REC-SVG-20010904/DTD/svg10.dtd">
<svg version="1.0" xmlns="http://www.w3.org/2000/svg"
 width="512.000000pt" height="512.000000pt" viewBox="0 0 512.000000 512.000000"
 preserveAspectRatio="xMidYMid meet">
<metadata>
Created by potrace 1.14, written by Peter Selinger 2001-2017
</metadata>
<g transform="translate(0.000000,512.000000) scale(0.100000,-0.100000)"
fill="#34BD73" stroke="none">
<path d="M2622 4007 c-48 -18 -99 -63 -125 -110 l-22 -42 -5 -718 c-3 -394 -7
-718 -10 -718 -3 -1 -43 11 -90 26 -71 24 -103 28 -195 29 -159 1 -275 -37
-400 -132 -166 -126 -257 -308 -258 -517 -1 -115 14 -177 69 -292 35 -74 59
-108 117 -165 126 -127 258 -187 429 -196 272 -13 515 131 629 373 60 128 59
109 59 942 l0 763 363 0 c210 0 381 5 407 11 94 21 165 95 178 186 28 189 -93
414 -273 510 -112 59 -148 63 -511 62 -226 0 -339 -4 -362 -12z"/>
</g>
</svg>
