<?xml version="1.0" standalone="no"?>
<!DOCTYPE svg PUBLIC "-//W3C//DTD SVG 20010904//EN"
 "http://www.w3.org/TR/2001/REC-SVG-20010904/DTD/svg10.dtd">
<svg version="1.0" xmlns="http://www.w3.org/2000/svg"
 width="764.000000pt" height="674.000000pt" viewBox="0 0 717.000000 674.000000"
 preserveAspectRatio="xMidYMid meet">

<g transform="translate(0.000000,674.000000) scale(0.100000,-0.100000)"
fill="white" stroke="none">
<path d="M3285 4933 c-431 -60 -791 -317 -976 -698 -27 -55 -61 -143 -75 -195
l-27 -95 -67 -32 c-295 -141 -517 -416 -608 -752 -23 -85 -26 -115 -26 -271
-1 -150 3 -188 22 -264 53 -212 167 -411 318 -556 134 -129 258 -205 422 -260
186 -62 140 -60 1567 -60 l1300 0 105 24 c255 59 455 189 611 398 174 234 237
545 169 834 -71 304 -291 572 -572 698 l-84 38 -11 73 c-39 242 -208 471 -429
583 -125 63 -184 76 -359 77 l-160 2 -75 78 c-104 107 -215 187 -355 256 -132
64 -221 92 -365 114 -88 14 -254 18 -325 8z m370 -362 c88 -23 220 -83 291
-131 117 -81 229 -209 294 -337 17 -35 33 -63 34 -63 2 0 30 16 62 35 82 50
124 60 244 60 101 0 108 -1 180 -37 238 -117 326 -369 216 -619 -6 -14 6 -17
82 -22 299 -21 535 -209 623 -497 30 -96 32 -261 5 -360 -54 -197 -192 -363
-374 -447 -140 -65 -93 -63 -1493 -63 -1122 0 -1279 2 -1347 16 -312 64 -554
310 -618 627 -20 96 -15 268 10 362 24 89 98 231 159 305 113 137 282 236 468
274 25 5 26 10 32 83 38 485 452 856 937 839 73 -3 144 -12 195 -25z"/>
</g>
</svg>
