<?xml version="1.0" standalone="no"?>
<!DOCTYPE svg PUBLIC "-//W3C//DTD SVG 20010904//EN"
 "http://www.w3.org/TR/2001/REC-SVG-20010904/DTD/svg10.dtd">
<svg version="1.0" xmlns="http://www.w3.org/2000/svg"
 width="717.000000pt" height="674.000000pt" viewBox="0 0 1000.000000 1000.000000"
 preserveAspectRatio="xMidYMid meet">

<g transform="translate(200.000000,900.000000) scale(0.100000,-0.100000)"
fill="white" stroke="none">
<path d="M6735 7493 c-11 -3 -28 -11 -38 -18 -17 -12 -4448 -4437 -5886 -5878
l-584 -585 -4 -49 c-6 -61 14 -105 60 -133 35 -22 96 -26 130 -9 12 6 267 256
567 555 l545 544 2010 2 2010 3 110 23 c230 49 435 136 607 258 109 78 287
257 367 369 116 164 204 368 253 591 29 134 32 426 5 554 -45 212 -100 361
-192 515 -69 117 -153 222 -266 330 -211 203 -466 336 -756 394 -55 12 -114
21 -130 21 -64 0 -69 6 -93 98 -37 146 -79 261 -146 401 -35 74 -64 139 -64
145 0 6 369 380 821 831 451 451 827 833 836 849 33 63 -5 151 -77 180 -41 16
-50 17 -85 9z m-1682 -2135 c81 -172 131 -330 157 -492 12 -75 36 -119 78
-140 15 -7 78 -16 142 -19 189 -10 309 -39 469 -113 393 -183 669 -559 721
-984 85 -696 -421 -1330 -1119 -1400 -118 -11 -3663 -15 -3675 -3 -7 7 3182
3202 3196 3203 3 0 18 -24 31 -52z"/>
<path d="M3215 6654 c-822 -91 -1513 -644 -1773 -1419 -74 -221 -118 -506
-110 -719 l3 -89 -94 -18 c-420 -81 -767 -364 -931 -759 -75 -181 -108 -441
-81 -641 35 -260 165 -522 351 -709 93 -93 203 -176 252 -191 79 -22 168 44
168 126 0 68 -12 87 -102 157 -270 212 -398 465 -398 787 1 334 165 639 439
816 160 103 278 141 482 154 128 9 164 22 194 74 17 28 17 41 5 205 -12 154
-12 191 3 326 10 83 28 194 40 246 128 519 491 968 972 1200 168 81 313 127
505 162 115 20 470 17 590 -5 303 -57 589 -184 810 -362 83 -66 100 -75 147
-75 79 0 133 60 133 147 0 44 -3 50 -57 103 -154 149 -489 331 -751 407 -197
57 -313 74 -542 77 -118 2 -233 2 -255 0z"/>
</g>
</svg>
